<?xml version="1.0" encoding="UTF-8" standalone="no"?>
<!-- Created with Inkscape (http://www.inkscape.org/) -->

<svg
   xmlns:dc="http://purl.org/dc/elements/1.1/"
   xmlns:cc="http://creativecommons.org/ns#"
   xmlns:rdf="http://www.w3.org/1999/02/22-rdf-syntax-ns#"
   xmlns:svg="http://www.w3.org/2000/svg"
   xmlns="http://www.w3.org/2000/svg"
   version="1.1"
   width="100%"
   height="100%"
   viewBox="0 0 20 20"
   id="Video_camera"
   xml:space="preserve"><metadata
     id="metadata9"><rdf:RDF><cc:Work
         rdf:about=""><dc:format>image/svg+xml</dc:format><dc:type
           rdf:resource="http://purl.org/dc/dcmitype/StillImage" /><dc:title></dc:title></cc:Work></rdf:RDF></metadata><defs
     id="defs7" /><path
     d="m 8,7.5 c -1.3810425,0 -2.5,1.119751 -2.5,2.5 0,1.380249 1.1189575,2.5 2.5,2.5 1.380249,0 2.5,-1.119751 2.5,-2.5 C 10.5,8.619751 9.380249,7.5 8,7.5 z M 14,2 2,2 C 0.9003906,2 0,2.9003906 0,4 l 0,12 c 0,1.099609 0.9003906,2 2,2 l 12,0 c 1.099609,0 2,-0.900391 2,-2 L 16,4 C 16,2.9003906 15.099609,2 14,2 z M 8,14.5 C 5.5144653,14.5 3.5,12.485535 3.5,10 3.5,7.5144653 5.5144653,5.5 8,5.5 c 2.484619,0 4.5,2.0144653 4.5,4.5 0,2.485535 -2.015381,4.5 -4.5,4.5 z M 19.215149,5.0856323 17,6.5623779 l 0,7.0000001 2.215149,1.476807 C 19.550659,15.262817 20,15.022339 20,14.619141 L 20,5.5056763 C 20,5.102478 19.215149,5.0856323 19.215149,5.0856323 z"
     id="path3" /></svg>